<?xml version="1.0" encoding="UTF-8" standalone="no"?>
<!DOCTYPE svg PUBLIC "-//W3C//DTD SVG 1.1//EN" "http://www.w3.org/Graphics/SVG/1.1/DTD/svg11.dtd">
<svg width="100%" height="100%" viewBox="0 0 1029 1029" version="1.1" xmlns="http://www.w3.org/2000/svg" xmlns:xlink="http://www.w3.org/1999/xlink" xml:space="preserve" xmlns:serif="http://www.serif.com/" style="fill-rule:evenodd;clip-rule:evenodd;stroke-linejoin:round;stroke-miterlimit:2;">
    <g id="acv_discord.svg" transform="matrix(2.1091,0,0,2.1091,514.5,514.5)">
        <g transform="matrix(1,0,0,1,-256,-256)">
            <path id="Discord" d="M196.83,103C191.15,103.02 144.14,104.36 94.55,141.21C94.55,141.21 41.65,236.35 41.65,353.54C41.65,353.54 72.51,406.44 153.69,409.01C153.69,409.01 167.28,392.85 178.3,378.89C131.65,364.93 114.02,335.91 114.02,335.91C114.02,335.91 117.69,338.48 124.31,342.15C124.68,342.15 125.04,342.52 125.78,342.88C126.88,343.61 127.98,343.98 129.09,344.72C138.27,349.86 147.46,353.9 155.91,357.21C170.97,363.45 188.97,368.96 209.91,373.01C237.46,378.15 269.79,379.99 305.05,373.38C322.32,370.07 339.95,365.3 358.32,357.58C371.18,352.8 385.5,345.83 400.56,335.91C400.56,335.91 382.19,365.66 334.07,379.26C345.09,392.85 358.31,408.65 358.31,408.65C439.49,406.08 470.35,353.18 470.35,353.55C470.35,236.37 417.45,141.22 417.45,141.22C364.92,101.9 314.59,103 314.59,103L309.45,108.88C371.9,127.61 400.92,155.17 400.92,155.17C362.72,134.6 325.25,124.31 290.35,120.27C263.9,117.33 238.55,118.07 216.15,121.01C213.95,121.01 212.11,121.38 209.91,121.74C197.05,123.21 165.83,127.62 126.52,144.88C112.93,150.76 104.85,155.17 104.85,155.17C104.85,155.17 134.97,126.15 201.09,107.41L197.42,103L196.83,103ZM187.49,238.55C208.43,238.55 225.33,256.55 224.96,278.96C224.96,301.37 208.43,319.37 187.49,319.37C166.92,319.37 150.02,301.37 150.02,278.96C150.02,256.55 166.55,238.55 187.49,238.55ZM321.57,238.55C342.14,238.55 359.04,256.55 359.04,278.96C359.04,301.37 342.51,319.37 321.57,319.37C301,319.37 284.1,301.37 284.1,278.96C284.1,256.55 300.63,238.55 321.57,238.55Z" style="fill:rgb(119,136,196);fill-rule:nonzero;"/>
        </g>
    </g>
</svg>
