<?xml version="1.0" encoding="UTF-8" standalone="no"?>
<!DOCTYPE svg PUBLIC "-//W3C//DTD SVG 1.1//EN" "http://www.w3.org/Graphics/SVG/1.1/DTD/svg11.dtd">
<svg width="100%" height="100%" viewBox="0 0 1029 1029" version="1.1" xmlns="http://www.w3.org/2000/svg" xmlns:xlink="http://www.w3.org/1999/xlink" xml:space="preserve" xmlns:serif="http://www.serif.com/" style="fill-rule:evenodd;clip-rule:evenodd;stroke-linejoin:round;stroke-miterlimit:2;">
    <g id="acv_eurodollar.svg" transform="matrix(2.23848,0,0,2.23848,514.5,514.5)">
        <g transform="matrix(1,0,0,1,-256,-256)">
            <g id="Eurodollar">
                <path d="M341.58,138.23L373.26,138.23L373.26,165.75C377.12,165.74 380.98,165.72 384.96,165.71C387.42,165.7 389.87,165.7 392.33,165.69C396.22,165.68 400.12,165.67 404.01,165.66C406.85,165.65 409.68,165.64 412.52,165.64C414.02,165.64 415.52,165.63 417.02,165.63C430.34,165.55 442.62,167.32 452.48,177.02C456.28,180.91 459.86,186.48 460.4,192.03C460.45,192.47 460.5,192.92 460.55,193.37C461.01,198.7 460.62,203.69 460.4,209.12L429.13,209.12C428.99,205.68 428.85,202.24 428.71,198.7C427.84,195.61 427.84,195.61 426.71,194.69C426.31,194.52 426.31,194.52 425.9,194.35C425.64,194.23 425.37,194.11 425.1,193.99C422.13,193.11 419.09,193.23 416.03,193.23L388.83,193.23C381.79,193.23 374.74,193.22 367.7,193.22L365.4,193.22C359.24,193.22 353.08,193.22 346.92,193.21C340.59,193.2 334.27,193.2 327.94,193.2C324.39,193.2 320.84,193.2 317.29,193.19L298.58,193.19C298.1,193.19 297.61,193.19 297.11,193.18C291.72,193.15 291.72,193.15 286.98,195.37C285.17,198.15 285.25,201.4 285.25,204.62L285.25,205.6C285.25,206.66 285.25,207.72 285.24,208.77L285.24,215.66C285.24,217.64 285.23,219.62 285.23,221.6C285.23,223.13 285.22,224.66 285.22,226.2C285.22,226.93 285.22,227.66 285.21,228.39C284.99,234.61 284.99,234.61 286.87,240.4C290.05,243.23 295.61,242.55 299.6,242.54L305.83,242.54C307.47,242.54 309.11,242.54 310.76,242.55C313.6,242.55 316.45,242.56 319.29,242.56C323.79,242.56 328.29,242.57 332.79,242.58C334.33,242.58 335.87,242.59 337.41,242.59L338.58,242.59C342.96,242.6 347.34,242.61 351.72,242.61L352.93,242.61C359.41,242.62 365.89,242.63 372.38,242.64C379.04,242.65 385.71,242.66 392.37,242.68C396.48,242.69 400.58,242.7 404.69,242.7C407.51,242.7 410.32,242.71 413.14,242.72C414.76,242.72 416.38,242.73 418.01,242.73C419.5,242.73 420.99,242.73 422.48,242.74L424.83,242.74C435.8,242.82 444.89,247.19 452.76,254.66C457.39,259.42 460.86,266.07 460.9,272.85C460.9,273.44 460.9,273.44 460.91,274.04L460.91,275.33C460.91,275.78 460.92,276.24 460.92,276.7C460.93,278.2 460.93,279.7 460.94,281.2C460.94,281.71 460.94,282.23 460.95,282.76C460.96,285.2 460.96,287.65 460.97,290.09C460.97,292.62 460.98,295.14 461,297.67C461.02,300.39 461.02,303.11 461.03,305.83C461.03,306.86 461.04,307.89 461.04,308.92C461.11,319.03 459.86,326.8 452.93,334.62C452.61,335 452.61,335 452.28,335.38C446.18,341.97 437.2,345.89 428.34,346.71C426.55,346.77 424.75,346.76 422.96,346.76L421.33,346.76C419.86,346.76 418.4,346.76 416.93,346.75L412.33,346.75C409.43,346.75 406.52,346.75 403.62,346.74C399.7,346.73 395.77,346.73 391.85,346.73C385.67,346.73 379.49,346.72 373.31,346.71L373.31,373.81L341.63,373.81L341.63,346.71C337.74,346.72 333.85,346.74 329.84,346.75C327.36,346.76 324.89,346.76 322.41,346.77C318.49,346.78 314.56,346.79 310.64,346.8C307.78,346.81 304.92,346.82 302.07,346.82C300.56,346.82 299.05,346.83 297.54,346.83C284.67,346.91 273.48,345.6 263.8,336.4C263.48,336.08 263.17,335.77 262.84,335.44C262.52,335.13 262.2,334.82 261.87,334.5C253.46,325.83 254.09,315.29 254.09,303.34L284.94,303.34C285.08,305.95 285.22,308.57 285.36,311.26C285.66,314.46 285.66,314.46 287.16,317.12C290.22,319.32 293.79,319.24 297.42,319.23L344.92,319.23C365.18,319.24 385.44,319.25 405.71,319.06C407.24,319.05 408.77,319.03 410.3,319.03C412.05,319.02 413.81,319 415.56,318.98C416.19,318.97 416.82,318.97 417.45,318.97C422.74,319.09 422.74,319.09 427.37,316.91C429.03,314.97 428.88,312.45 428.88,310.04C428.88,309.67 428.88,309.31 428.89,308.93C428.9,307.73 428.9,306.53 428.89,305.32C428.89,304.48 428.89,303.64 428.9,302.8L428.9,297.53C428.9,295.28 428.9,293.04 428.91,290.79C428.92,289.06 428.92,287.33 428.92,285.59C428.92,284.76 428.92,283.93 428.93,283.11C428.94,281.95 428.93,280.79 428.93,279.63C428.93,279.29 428.94,278.95 428.94,278.6C428.92,276.3 428.49,274.57 427.52,272.47C425.51,270.87 423.56,270.75 421.06,270.72C420.79,270.72 420.51,270.71 420.23,270.71C419.31,270.7 418.38,270.69 417.46,270.68C416.79,270.67 416.12,270.66 415.45,270.65C413.6,270.63 411.74,270.61 409.89,270.59C408.7,270.58 407.51,270.56 406.32,270.55C391.81,270.39 377.29,270.37 362.78,270.38L361.17,270.38C351.89,270.39 342.6,270.4 333.32,270.42L329.08,270.42C324.41,270.43 319.74,270.44 315.07,270.44C311.98,270.44 308.89,270.45 305.81,270.46C303.9,270.46 302,270.47 300.09,270.47C299.21,270.47 298.34,270.47 297.46,270.48C286.07,270.53 274.66,269.49 265.76,261.63C265.42,261.35 265.08,261.07 264.73,260.78C258.69,255.63 254.66,248.44 254,240.47C253.84,237.25 253.86,234.03 253.87,230.81L253.87,227.69C253.87,225.52 253.87,223.35 253.88,221.18C253.89,218.42 253.88,215.65 253.87,212.89C253.86,210.75 253.87,208.6 253.87,206.46L253.87,203.4C253.84,193.19 255.26,184.44 262.62,176.81C270.72,168.83 281.05,165.58 292.28,165.65L293.91,165.65C295.37,165.65 296.82,165.65 298.28,165.66C299.81,165.67 301.34,165.67 302.86,165.67C305.74,165.67 308.63,165.68 311.51,165.69C315.41,165.7 319.32,165.71 323.22,165.71C329.36,165.72 335.5,165.73 341.64,165.75C341.58,156.66 341.58,147.58 341.58,138.23Z" style="fill:rgb(187,32,37);fill-rule:nonzero;"/>
                <path d="M51,165.74L241.1,165.74L241.1,193.26L82.68,193.26L82.68,242.04L209.83,242.04L209.83,270.39L82.68,270.39L82.68,319.17L241.1,319.17L241.1,346.69L51,346.69L51,165.74Z" style="fill:rgb(187,32,37);fill-rule:nonzero;"/>
            </g>
        </g>
    </g>
</svg>
