<?xml version="1.0" encoding="UTF-8" standalone="no"?>
<!DOCTYPE svg PUBLIC "-//W3C//DTD SVG 1.1//EN" "http://www.w3.org/Graphics/SVG/1.1/DTD/svg11.dtd">
<svg width="100%" height="100%" viewBox="0 0 1029 1029" version="1.1" xmlns="http://www.w3.org/2000/svg" xmlns:xlink="http://www.w3.org/1999/xlink" xml:space="preserve" xmlns:serif="http://www.serif.com/" style="fill-rule:evenodd;clip-rule:evenodd;stroke-linejoin:round;stroke-miterlimit:2;">
    <g id="acv_google_sheets.svg" transform="matrix(2.17337,0,0,2.17337,514.5,514.5)">
        <g transform="matrix(1,0,0,1,-256,-256)">
            <g id="Sheets">
                <path d="M296.62,77.25L386,166.62L341.31,174.74L296.62,166.62L288.5,121.93L296.62,77.25Z" style="fill:rgb(28,129,64);fill-rule:nonzero;"/>
                <g>
                    <rect x="266.16" y="284.44" width="50.78" height="28.44" style="fill:rgb(54,168,82);"/>
                    <rect x="266.16" y="235.69" width="50.78" height="28.44" style="fill:rgb(54,168,82);"/>
                    <rect x="195.06" y="235.69" width="50.78" height="28.44" style="fill:rgb(54,168,82);"/>
                    <rect x="195.06" y="284.44" width="50.78" height="28.44" style="fill:rgb(54,168,82);"/>
                    <path d="M296.62,166.62L296.62,77.25L150.38,77.25C136.97,77.25 126,88.22 126,101.63L126,410.38C126,423.79 136.97,434.76 150.38,434.76L361.63,434.76C375.04,434.76 386.01,423.79 386.01,410.38L386.01,166.62L296.62,166.62ZM337.25,333.19L174.75,333.19L174.75,215.38L337.25,215.38L337.25,333.19Z" style="fill:rgb(54,168,82);fill-rule:nonzero;"/>
                </g>
            </g>
        </g>
    </g>
</svg>
