<?xml version="1.0" encoding="UTF-8" standalone="no"?>
<!DOCTYPE svg PUBLIC "-//W3C//DTD SVG 1.1//EN" "http://www.w3.org/Graphics/SVG/1.1/DTD/svg11.dtd">
<svg width="100%" height="100%" viewBox="0 0 1029 1029" version="1.1" xmlns="http://www.w3.org/2000/svg" xmlns:xlink="http://www.w3.org/1999/xlink" xml:space="preserve" xmlns:serif="http://www.serif.com/" style="fill-rule:evenodd;clip-rule:evenodd;stroke-linejoin:round;stroke-miterlimit:2;">
    <g id="kofi.svg" transform="matrix(2.00304,0,0,2.00304,540.5,537.5)">
        <g transform="matrix(1,0,0,1,-256,-256)">
            <path d="M62.1,121.1L368.1,121.1C380.1,121 391.3,123.2 402.4,127.8C403.1,128.1 403.8,128.4 404.5,128.7C429,139 448.6,156.8 459,181.5C467.8,203.5 470.4,230.9 463.1,253.7C462.8,254.6 462.8,254.6 462.6,255.4C454.5,280.9 436.1,300.1 412.7,312.3C401.2,318 388.9,321.7 376.1,323.4C375.6,323.5 375,323.6 374.5,323.6C369,324.3 363.6,324.3 358,324.2L348.2,324.2C348.2,325 348.3,325.7 348.3,326.5C348.6,339 347,351.8 340.8,362.8C340.4,363.5 340.1,364.2 339.7,364.9C332.9,377.3 321.7,384.4 308.4,388.5C303.9,389.7 299.7,390 295.1,390L280.8,390C276.2,390 271.5,390 266.9,390.1C262,390.1 257.1,390.1 252.3,390.2C244.1,390.2 235.9,390.3 227.6,390.3C216.1,390.3 204.7,390.4 193.2,390.4C184.2,390.4 175.2,390.5 166.2,390.5L131.4,390.5C126.5,390.5 121.6,390.6 116.8,390.6C113.7,390.6 110.6,390.7 107.6,390.7C106.2,390.7 104.8,390.7 103.4,390.8C86.8,391.1 71.7,387 59.4,375.3C46.1,361.9 45.7,344.8 45.8,327L45.8,141.6C45.9,135.5 46.8,129.9 50.5,124.9C54,121.5 57.1,121.1 62.1,121.1ZM349.6,173.9L349.6,272.4C364.7,275.4 380.9,273.4 393.9,265C405.1,256.7 411.5,245.2 413.7,231.4C415.5,217.9 414.2,204.2 406.2,192.7C398.8,183.4 391.8,178.9 380.8,173.8C370.5,173.9 360.2,173.9 349.6,173.9ZM120,199.1C112,208.9 109.8,220.6 110.8,233C114.2,257.5 129.8,271.8 146.4,288.4C146.9,288.9 147.4,289.4 147.9,289.9C152.8,294.8 157.6,299.6 162.9,304.1C165,305.9 166.9,307.9 168.9,310C170.5,311.6 172.1,313 173.8,314.5C177.9,318 181.7,321.7 185.6,325.4C187.2,326.9 188.8,328.4 190.4,329.9C191.1,330.5 191.1,330.5 191.8,331.2C193.6,332.9 194.9,334 197.4,334.3C199.9,334 200.7,333.4 202.5,331.6C203,331.1 203.6,330.5 204.2,330C204.8,329.4 205.4,328.8 206,328.2C207.3,327 208.5,325.8 209.8,324.5C210.4,323.9 211.1,323.3 211.7,322.6C213.9,320.4 216.2,318.3 218.5,316.2C224.6,310.6 230.5,304.7 236.3,298.8C239.6,295.4 243,292.3 246.6,289.2C248.4,287.6 249.9,285.9 251.5,284.1C254,281.2 256.6,278.5 259.3,275.9C273.1,262.5 283,248.1 284.4,228.3C284.2,216.9 280,205.9 272.1,197.6C261.3,187.9 248.6,184.4 234.5,185.1C220.4,186.4 207.7,195.1 198.1,205C195.7,203.9 194.2,202.8 192.4,200.8C182.5,190.7 167.7,185.6 153.8,185.1C141,185.6 128.6,189.9 120,199.1Z" style="fill-rule:nonzero;"/>
        </g>
    </g>
</svg>
