<?xml version="1.0" encoding="UTF-8" standalone="no"?>
<!DOCTYPE svg PUBLIC "-//W3C//DTD SVG 1.1//EN" "http://www.w3.org/Graphics/SVG/1.1/DTD/svg11.dtd">
<svg width="100%" height="100%" viewBox="0 0 1029 1029" version="1.1" xmlns="http://www.w3.org/2000/svg" xmlns:xlink="http://www.w3.org/1999/xlink" xml:space="preserve" xmlns:serif="http://www.serif.com/" style="fill-rule:evenodd;clip-rule:evenodd;stroke-linejoin:round;stroke-miterlimit:2;">
    <g id="acv_soundcloud.svg" transform="matrix(2.05497,0,0,2.05497,514.5,514.5)">
        <g transform="matrix(1,0,0,1,-256,-256)">
            <path id="SoundCloud" d="M415.03,355.72C448.34,356.19 476.1,330.13 477.97,296.63C478.45,280.08 472.24,264.05 460.75,252.21C449.26,240.37 433.49,233.74 417.05,233.85C411.63,233.83 406.22,234.57 401,236.06C395.08,208.34 377.9,184.38 353.63,170C338.25,160.77 320.67,155.91 302.77,155.93C273.46,155.93 259.55,165.65 259.55,165.65C254.29,167.94 250.98,173.24 251.2,179.01L251.2,343.04C251.23,350.02 256.82,355.68 263.75,355.74L415.03,355.74L415.03,355.72ZM232.31,351.19C240.18,295.74 236.87,245 232.31,189.37C232.52,187.48 231.63,185.64 230.04,184.64C228.44,183.63 226.41,183.63 224.82,184.64C223.22,185.65 222.34,187.49 222.55,189.37C218.41,244.52 215.21,296.22 222.55,351.19C222.82,353.7 224.93,355.6 227.43,355.6C229.93,355.6 232.04,353.7 232.31,351.19ZM201.7,351.25C201.32,353.78 199.15,355.65 196.61,355.65C194.07,355.65 191.9,353.78 191.52,351.25C186.04,303.81 186.04,255.89 191.52,208.45C191.8,205.81 194.01,203.82 196.64,203.82C199.27,203.82 201.48,205.82 201.76,208.45C207.84,255.85 207.82,303.85 201.7,351.25ZM170.97,351.13C178.25,300.27 176,254.6 171.03,203.62C170.75,201.08 168.62,199.16 166.09,199.16C163.55,199.16 161.42,201.08 161.15,203.62C156.47,253.94 154.1,300.93 161.15,351.13C161.15,353.86 163.35,356.08 166.06,356.08C168.77,356.08 170.97,353.86 170.97,351.13ZM140.3,351.3C140.02,353.87 137.87,355.82 135.3,355.82C132.73,355.82 130.58,353.87 130.3,351.3C124.65,307.04 124.65,262.24 130.3,217.98C130.3,215.15 132.58,212.85 135.39,212.85C138.2,212.85 140.48,215.15 140.48,217.98C146.49,262.22 146.43,307.08 140.3,351.3ZM109.33,351.67C113.89,316.43 117.38,285.9 109.63,251.32C109.63,248.52 107.38,246.25 104.6,246.25C101.82,246.25 99.57,248.52 99.57,251.32C92.29,285.66 95.72,316.91 99.87,351.67C100.24,354.02 102.25,355.74 104.61,355.74C106.95,355.74 108.96,354.01 109.33,351.67ZM79.02,246.07C86.13,281.49 83.82,311.48 78.84,347.01C78.25,352.26 69.31,352.32 68.83,347.01C64.33,312.01 62.2,281.13 68.65,246.07C68.93,243.4 71.17,241.38 73.83,241.38C76.49,241.38 78.73,243.41 79.02,246.07ZM47.81,329.9C53.02,305.81 55.57,286.73 48.11,263.24C47.83,260.57 45.59,258.55 42.93,258.55C40.27,258.55 38.03,260.57 37.75,263.24C31.83,286.79 33.66,306.29 38.16,329.9C38.43,332.38 40.51,334.25 42.99,334.25C45.47,334.25 47.54,332.38 47.81,329.9Z" style="fill:rgb(1,1,1);"/>
        </g>
    </g>
</svg>
