<?xml version="1.0" encoding="UTF-8" standalone="no"?>
<!DOCTYPE svg PUBLIC "-//W3C//DTD SVG 1.1//EN" "http://www.w3.org/Graphics/SVG/1.1/DTD/svg11.dtd">
<svg width="100%" height="100%" viewBox="0 0 1029 1029" version="1.1" xmlns="http://www.w3.org/2000/svg" xmlns:xlink="http://www.w3.org/1999/xlink" xml:space="preserve" xmlns:serif="http://www.serif.com/" style="fill-rule:evenodd;clip-rule:evenodd;stroke-linejoin:round;stroke-miterlimit:2;">
    <g id="acv_steam.svg" transform="matrix(2.17337,0,0,2.17337,514.5,514.5)">
        <g transform="matrix(1,0,0,1,-256,-256)">
            <path id="Steam" d="M255.69,79C162.55,79 86.25,150.7 79,241.8L174.03,281.02C182.33,275.34 192.18,272.3 202.28,272.31C203.22,272.31 204.16,272.34 205.07,272.39L247.34,211.23L247.34,210.37C247.34,173.57 277.33,143.62 314.2,143.62C351.07,143.62 381.06,173.57 381.06,210.37C381.06,247.17 351.07,277.13 314.2,277.13C313.69,277.13 313.19,277.12 312.68,277.11L252.4,320.03C252.44,320.83 252.46,321.62 252.46,322.4C252.46,350.04 229.94,372.52 202.27,372.52C177.98,372.52 157.66,355.2 153.06,332.29L85.1,304.23C106.15,378.53 174.53,433 255.69,433C353.62,433 433,353.75 433,256C433,158.24 353.62,79 255.69,79ZM190.11,347.57L168.33,338.59C172.18,346.62 178.87,353.33 187.73,357.02C206.89,365 228.99,355.92 236.97,336.78C240.84,327.57 240.86,317.23 237.03,308.01C233.2,298.72 225.97,291.48 216.69,287.62C207.47,283.8 197.59,283.93 188.92,287.2L211.43,296.49C225.57,302.37 232.25,318.58 226.36,332.69C220.49,346.77 204.25,353.45 190.11,347.57ZM358.76,210.38C358.76,185.86 338.77,165.9 314.21,165.9C289.64,165.9 269.65,185.86 269.65,210.38C269.65,234.9 289.64,254.85 314.21,254.85C338.76,254.85 358.76,234.9 358.76,210.38ZM280.81,210.3C280.81,191.85 295.8,176.9 314.27,176.9C332.76,176.9 347.75,191.85 347.75,210.3C347.75,228.75 332.76,243.71 314.27,243.71C295.8,243.71 280.8,228.75 280.81,210.3Z" style="fill:rgb(27,25,24);fill-rule:nonzero;"/>
        </g>
    </g>
</svg>
