<?xml version="1.0" encoding="UTF-8" standalone="no"?>
<!DOCTYPE svg PUBLIC "-//W3C//DTD SVG 1.1//EN" "http://www.w3.org/Graphics/SVG/1.1/DTD/svg11.dtd">
<svg width="100%" height="100%" viewBox="0 0 1029 1029" version="1.1" xmlns="http://www.w3.org/2000/svg" xmlns:xlink="http://www.w3.org/1999/xlink" xml:space="preserve" xmlns:serif="http://www.serif.com/" style="fill-rule:evenodd;clip-rule:evenodd;stroke-linejoin:round;stroke-miterlimit:2;">
    <g id="sterni.svg" transform="matrix(1.73268,0,0,1.73268,514.5,476.013)">
        <g transform="matrix(1,0,0,1,-256,-256)">
            <path d="M505.5,198.1C503,191.6 494.9,184.7 481.1,177.6C474.7,174.3 467.4,170.8 463,169.3C451.4,165.1 438.7,160.9 429.9,158.7C414.2,154.8 398.8,152 383.2,150.2C374.1,149.1 364.8,148.3 355.8,147.8C351.9,138.3 347.5,128.2 343,118.6C338.6,109.2 329.2,91.9 321.6,78C318,71.3 309.4,57.4 300.2,46.4C296.9,42.5 291.9,37.5 286.7,32.9C273.4,21 260.8,15.7 255.1,16C248.1,16.4 239.1,22 228,32.9C222.9,38 217.3,43.9 214.5,47.6C206.9,57.3 199.1,68.1 194.2,75.8C185.6,89.5 178.2,103.4 171.7,117.6C167.9,125.8 164.4,134.2 161.1,142.4C151,143.2 140.2,144.2 129.8,145.5C119.5,146.8 100.2,150.4 84.6,153.3C77.1,154.7 61.3,158.5 48,163.9C43.3,165.8 37,169.1 31,172.6C15.6,181.6 6.7,191.9 5.2,197.4C3.4,204.1 5.9,214.4 12.9,228.3C16.1,234.7 20,241.8 22.7,245.7C29.6,255.9 37.4,266.7 43.2,273.7C53.6,286.1 64.4,297.4 75.9,308C82.7,314.3 89.8,320.4 96.7,326.1C94.3,336 92,346.7 90,357C88,367.2 85.5,386.7 83.5,402.4C82.5,410 81.3,426.2 82.3,440.5C82.7,445.6 83.8,452.6 85.3,459.4C89.1,476.8 96.1,488.5 100.9,491.6C106.7,495.4 117.3,496.2 132.7,493.8C139.8,492.7 147.8,491.2 152.2,489.9C164,486.5 176.7,482.4 185.2,479C200.2,473 214.3,466.1 227.9,458.5C235.8,454 243.8,449.3 251.2,444.5C259.8,449.8 269.2,455.3 278.4,460.4C287.5,465.4 305.2,473.8 319.6,480.7C326.5,484 341.6,490.2 355.5,493.7C360.5,494.9 367.5,496 374.4,496.7C392.1,498.5 405.4,495.4 409.9,491.8C415.3,487.4 419.3,477.6 421.8,462.2C423,455.1 424,447.1 424.1,442.4C424.5,430.1 424.6,416.7 423.9,407.6C422.8,391.5 420.7,375.9 417.6,360.6C415.9,351.9 413.8,343.1 411.6,334.7C419.3,328.2 427.4,320.9 435.1,313.7C442.7,306.6 456.2,292.3 467.1,280.7C472.4,275.2 482.9,262.7 490.5,250.5C493.2,246.2 496.4,239.8 499.2,233.4C506.3,217 507.5,203.4 505.5,198.1ZM255,278.9C254.9,278.8 254.9,278.8 254.8,278.7L255.1,278.7C255.1,278.8 255.2,278.9 255.2,279C255.2,279 255.1,279 255,278.9Z"/>
        </g>
    </g>
</svg>
