<?xml version="1.0" encoding="UTF-8" standalone="no"?>
<!DOCTYPE svg PUBLIC "-//W3C//DTD SVG 1.1//EN" "http://www.w3.org/Graphics/SVG/1.1/DTD/svg11.dtd">
<svg width="100%" height="100%" viewBox="0 0 1029 1029" version="1.1" xmlns="http://www.w3.org/2000/svg" xmlns:xlink="http://www.w3.org/1999/xlink" xml:space="preserve" xmlns:serif="http://www.serif.com/" style="fill-rule:evenodd;clip-rule:evenodd;stroke-linejoin:round;stroke-miterlimit:2;">
    <g id="acv_tumblr.svg" transform="matrix(1.79436,0,0,1.79436,514.5,514.5)">
        <g transform="matrix(1,0,0,1,-256,-256)">
            <g id="Tumblr">
                <path d="M349.23,371.22C343.6,372.45 281.88,398.83 281.88,334.58C281.76,310.33 281.86,286.08 281.86,261.84L281.86,225.72L354.2,225.72L354.2,163.34L282.25,163.34L282.25,64.48L220.74,64.48C220.74,64.48 220.31,75.37 216.33,91.41C205.93,128.25 177.7,163.02 145,172.33L145,226.54L188.29,226.54L188.26,342.59C188.26,485.89 351.62,446.16 367,429.88L349.23,371.22Z" style="fill:rgb(1,1,1);fill-rule:nonzero;"/>
            </g>
        </g>
    </g>
</svg>
