<?xml version="1.0" encoding="UTF-8" standalone="no"?>
<!DOCTYPE svg PUBLIC "-//W3C//DTD SVG 1.1//EN" "http://www.w3.org/Graphics/SVG/1.1/DTD/svg11.dtd">
<svg width="100%" height="100%" viewBox="0 0 1029 1029" version="1.1" xmlns="http://www.w3.org/2000/svg" xmlns:xlink="http://www.w3.org/1999/xlink" xml:space="preserve" xmlns:serif="http://www.serif.com/" style="fill-rule:evenodd;clip-rule:evenodd;stroke-linejoin:round;stroke-miterlimit:2;">
    <g id="acv_twitch.svg" transform="matrix(2.26667,0,0,2.26667,514.5,562.5)">
        <g transform="matrix(1,0,0,1,-256,-256)">
            <g id="Twitch" transform="matrix(0.1,0,0,-0.1,0,11683)">
                <path d="M1385.98,115691L1077.02,115382L1077.05,114270L1077.05,113158L1818.45,113158L1818.45,112849C1818.45,112679 1818.54,112540 1818.69,112540C1818.81,112540 1957.9,112679 2127.77,112849L2436.64,113158L2930.75,113158L4042.97,114270L4042.97,116000L2868.97,116000L1694.94,116000L1385.98,115691ZM3795.88,115073L3795.94,114394L3301.43,113899L2807.05,113899L2591,113683C2472.17,113564 2374.86,113467 2374.75,113467C2374.6,113467 2374.51,113564 2374.51,113683L2374.51,113899L2096.57,113899L1818.6,113899L1818.51,114826C1818.48,115335 1818.51,115752 1818.6,115753C1818.69,115753 2016.59,115753 2807.25,115753L3795.78,115753L3795.88,115073Z" style="fill:rgb(1,1,1);fill-rule:nonzero;"/>
                <rect x="2498.18" y="114579" width="247.04" height="741.41" style="fill:rgb(1,1,1);fill-rule:nonzero;"/>
                <rect x="3177.9" y="114579" width="247.04" height="741.41" style="fill:rgb(1,1,1);fill-rule:nonzero;"/>
            </g>
        </g>
    </g>
</svg>
