<?xml version="1.0" encoding="UTF-8" standalone="no"?>
<!DOCTYPE svg PUBLIC "-//W3C//DTD SVG 1.1//EN" "http://www.w3.org/Graphics/SVG/1.1/DTD/svg11.dtd">
<svg width="100%" height="100%" viewBox="0 0 1029 1029" version="1.1" xmlns="http://www.w3.org/2000/svg" xmlns:xlink="http://www.w3.org/1999/xlink" xml:space="preserve" xmlns:serif="http://www.serif.com/" style="fill-rule:evenodd;clip-rule:evenodd;stroke-linejoin:round;stroke-miterlimit:2;">
    <g id="acv_youtube.svg" transform="matrix(2.60184,0,0,2.60184,514.5,514.5)">
        <g transform="matrix(1,0,0,1,-256,-256)">
            <path d="M412.04,177.6C408.29,163.58 397.27,152.56 383.24,148.81C357.86,142 256,142 256,142C256,142 154.15,142 128.76,148.81C114.74,152.56 103.72,163.58 99.97,177.6C93.16,202.99 93.16,256 93.16,256C93.16,256 93.16,309.01 99.97,334.4C103.72,348.42 114.74,359.44 128.76,363.19C154.15,370 256,370 256,370C256,370 357.86,370 383.24,363.19C397.26,359.44 408.28,348.42 412.04,334.4C418.85,309.01 418.85,256 418.85,256C418.85,256 418.82,202.99 412.04,177.6ZM223.4,304.85L223.4,207.15L308.01,256L223.4,304.85Z" style="fill:rgb(237,34,36);fill-rule:nonzero;"/>
        </g>
    </g>
</svg>
