<?xml version="1.0" encoding="UTF-8" standalone="no"?>
<!DOCTYPE svg PUBLIC "-//W3C//DTD SVG 1.1//EN" "http://www.w3.org/Graphics/SVG/1.1/DTD/svg11.dtd">
<svg width="100%" height="100%" viewBox="0 0 1200 600" version="1.1" xmlns="http://www.w3.org/2000/svg" xmlns:xlink="http://www.w3.org/1999/xlink" xml:space="preserve" xmlns:serif="http://www.serif.com/" style="fill-rule:evenodd;clip-rule:evenodd;stroke-linejoin:round;stroke-miterlimit:2;">
    <g transform="matrix(7.47077,0,0,7.47077,-3785.7,-1672.08)">
        <g transform="matrix(1,0,0,1,504.248,281.923)">
            <path d="M19.75,0L12.05,-20.7L12.05,0L3.5,0L3.5,-35.9L14.65,-35.9L23.7,-11.55L32.7,-35.9L43.85,-35.9L43.85,0L35.3,0L35.3,-20.95L27.55,0L19.75,0Z"/>
        </g>
        <g transform="matrix(1,0,0,1,504.248,281.923)">
            <path d="M67.25,0.75C64.65,0.75 62.233,0.292 60,-0.625C57.767,-1.542 55.808,-2.842 54.125,-4.525C52.442,-6.208 51.125,-8.192 50.175,-10.475C49.225,-12.758 48.75,-15.267 48.75,-18C48.75,-20.733 49.225,-23.233 50.175,-25.5C51.125,-27.767 52.442,-29.733 54.125,-31.4C55.808,-33.067 57.767,-34.358 60,-35.275C62.233,-36.192 64.65,-36.65 67.25,-36.65C69.85,-36.65 72.275,-36.192 74.525,-35.275C76.775,-34.358 78.742,-33.067 80.425,-31.4C82.108,-29.733 83.425,-27.767 84.375,-25.5C85.325,-23.233 85.8,-20.733 85.8,-18C85.8,-15.267 85.325,-12.758 84.375,-10.475C83.425,-8.192 82.108,-6.208 80.425,-4.525C78.742,-2.842 76.775,-1.542 74.525,-0.625C72.275,0.292 69.85,0.75 67.25,0.75ZM67.25,-7.7C68.65,-7.7 69.9,-7.967 71,-8.5C72.1,-9.033 73.025,-9.775 73.775,-10.725C74.525,-11.675 75.092,-12.775 75.475,-14.025C75.858,-15.275 76.05,-16.6 76.05,-18C76.05,-19.4 75.858,-20.717 75.475,-21.95C75.092,-23.183 74.525,-24.267 73.775,-25.2C73.025,-26.133 72.1,-26.867 71,-27.4C69.9,-27.933 68.65,-28.2 67.25,-28.2C65.85,-28.2 64.6,-27.933 63.5,-27.4C62.4,-26.867 61.475,-26.133 60.725,-25.2C59.975,-24.267 59.408,-23.183 59.025,-21.95C58.642,-20.717 58.45,-19.4 58.45,-18C58.45,-16.6 58.642,-15.275 59.025,-14.025C59.408,-12.775 59.975,-11.675 60.725,-10.725C61.475,-9.775 62.4,-9.033 63.5,-8.5C64.6,-7.967 65.85,-7.7 67.25,-7.7Z"/>
        </g>
        <g transform="matrix(1,0,0,1,504.248,281.923)">
            <path d="M106.85,0.75C104.317,0.75 101.942,0.275 99.725,-0.675C97.508,-1.625 95.567,-2.958 93.9,-4.675C92.233,-6.392 90.933,-8.383 90,-10.65C89.067,-12.917 88.6,-15.367 88.6,-18C88.6,-20.633 89.067,-23.075 90,-25.325C90.933,-27.575 92.233,-29.55 93.9,-31.25C95.567,-32.95 97.508,-34.275 99.725,-35.225C101.942,-36.175 104.317,-36.65 106.85,-36.65C110.15,-36.65 113.133,-35.975 115.8,-34.625C118.467,-33.275 120.65,-31.392 122.35,-28.975C124.05,-26.558 125.083,-23.767 125.45,-20.6L115.45,-20.6C115.217,-22.1 114.7,-23.425 113.9,-24.575C113.1,-25.725 112.108,-26.617 110.925,-27.25C109.742,-27.883 108.417,-28.2 106.95,-28.2C105.617,-28.2 104.417,-27.958 103.35,-27.475C102.283,-26.992 101.375,-26.3 100.625,-25.4C99.875,-24.5 99.3,-23.425 98.9,-22.175C98.5,-20.925 98.3,-19.533 98.3,-18C98.3,-16.467 98.5,-15.067 98.9,-13.8C99.3,-12.533 99.875,-11.45 100.625,-10.55C101.375,-9.65 102.283,-8.95 103.35,-8.45C104.417,-7.95 105.617,-7.7 106.95,-7.7C108.417,-7.7 109.742,-8.025 110.925,-8.675C112.108,-9.325 113.092,-10.225 113.875,-11.375C114.658,-12.525 115.183,-13.85 115.45,-15.35L125.45,-15.35C125.05,-12.15 124,-9.342 122.3,-6.925C120.6,-4.508 118.425,-2.625 115.775,-1.275C113.125,0.075 110.15,0.75 106.85,0.75Z"/>
        </g>
        <g transform="matrix(1,0,0,1,504.248,281.923)">
            <path d="M139.8,0L130.35,0L130.35,-35.9L139.8,-35.9L139.8,-20.8L151,-35.9L161.75,-35.9L149.1,-19.05L162.1,0L150.6,0L139.8,-16.2L139.8,0Z"/>
        </g>
    </g>
</svg>
